<?xml version="1.0" encoding="utf-8"?>
<!DOCTYPE svg PUBLIC "-//W3C//DTD SVG 20010904//EN" "http://www.w3.org/TR/2001/REC-SVG-20010904/DTD/svg10.dtd">
<svg version="1.0" xmlns="http://www.w3.org/2000/svg" width="256pt" height="256pt" viewBox="0 0 256 256" style="" preserveAspectRatio="xMidYMid meet">
<g fill="#0267FFFF" stroke="#0267FFFF">
<path d="M 214.366 61.500 C 213.386 62.050 212.053 62.950 211.403 63.500 C 210.753 64.050 208.972 65.400 207.446 66.500 C 205.919 67.600 203.989 69.175 203.156 70.000 C 202.324 70.825 201.386 71.456 201.071 71.401 C 200.513 71.305 192.991 75.959 192.000 77.014 C 191.725 77.307 190.150 78.400 188.500 79.443 C 186.850 80.487 184.907 82.171 184.182 83.187 C 183.456 84.202 182.543 84.836 182.153 84.594 C 181.762 84.353 179.655 85.700 177.471 87.587 C 175.287 89.475 173.488 90.452 173.474 89.759 C 173.459 89.060 172.992 89.287 172.424 90.269 C 171.861 91.241 169.910 92.836 168.089 93.812 C 166.269 94.789 164.829 96.018 164.889 96.544 C 164.950 97.070 164.550 97.556 164.000 97.625 C 163.450 97.694 162.658 97.806 162.240 97.875 C 161.822 97.944 160.191 99.238 158.616 100.750 L 155.753 103.500 158.627 102.575 C 160.207 102.067 161.831 101.167 162.235 100.575 C 162.725 99.857 162.974 99.926 162.985 100.781 C 162.993 101.486 162.328 102.321 161.506 102.636 C 160.684 102.952 160.334 103.725 160.728 104.355 C 161.479 105.556 161.969 107.307 162.384 110.277 C 162.521 111.255 163.728 112.811 165.066 113.736 C 166.405 114.661 168.099 116.003 168.831 116.718 C 169.562 117.433 170.543 117.783 171.009 117.495 C 171.475 117.207 172.118 117.796 172.438 118.805 C 172.758 119.814 174.804 121.592 176.985 122.756 C 180.744 124.762 181.119 124.788 184.225 123.246 C 186.026 122.351 188.095 121.030 188.821 120.309 C 189.548 119.589 190.499 119.000 190.935 119.000 C 191.371 119.000 192.965 117.763 194.477 116.250 C 195.990 114.738 197.514 113.499 197.864 113.498 C 198.214 113.498 199.919 112.485 201.654 111.248 C 203.389 110.012 205.124 109.000 205.510 109.000 C 205.896 109.000 207.626 107.868 209.356 106.485 C 214.069 102.715 214.209 102.615 218.250 100.137 L 222.000 97.837 222.000 129.418 L 222.000 161.000 216.148 161.000 C 211.126 161.000 209.886 160.609 207.398 158.239 C 205.804 156.721 202.925 154.379 201.000 153.037 C 199.075 151.694 196.772 149.786 195.883 148.797 C 194.993 147.809 193.986 147.000 193.644 147.000 C 192.932 147.000 189.787 144.502 186.480 141.311 C 185.233 140.106 183.939 139.394 183.606 139.727 C 183.273 140.061 183.000 139.733 183.000 139.000 C 183.000 138.267 182.748 137.919 182.439 138.227 C 182.131 138.536 180.860 137.823 179.614 136.644 C 175.384 132.639 172.909 130.938 172.067 131.459 C 171.605 131.744 170.671 131.308 169.991 130.489 C 169.311 129.670 169.031 129.000 169.368 129.000 C 169.705 129.000 169.210 128.100 168.268 127.000 C 166.314 124.718 164.000 124.356 164.000 126.333 C 164.000 127.067 163.303 127.667 162.450 127.667 C 161.377 127.667 160.988 126.873 161.186 125.083 C 161.464 122.571 161.438 122.559 160.257 124.645 C 159.269 126.390 159.318 127.019 160.521 128.017 C 161.705 129.000 162.000 132.216 162.000 144.158 C 162.000 159.043 161.996 159.068 159.879 157.935 C 158.389 157.138 157.961 157.127 158.438 157.900 C 159.369 159.406 155.720 159.320 154.200 157.800 C 153.267 156.867 153.000 156.991 153.000 158.359 C 153.000 159.326 153.403 159.869 153.895 159.565 C 154.388 159.260 155.172 159.796 155.639 160.756 C 156.105 161.715 156.377 161.938 156.243 161.250 C 155.813 159.041 157.641 159.918 158.809 162.480 C 159.551 164.109 160.469 164.757 161.481 164.369 C 162.493 163.981 162.868 164.245 162.572 165.139 C 162.315 165.915 164.028 167.890 166.561 169.736 C 169.002 171.516 171.000 172.473 171.000 171.864 C 171.000 171.113 171.484 171.157 172.500 172.000 C 173.325 172.685 174.000 173.659 174.000 174.164 C 174.000 174.670 174.966 176.077 176.147 177.292 C 177.328 178.506 177.970 178.825 177.573 178.000 C 177.176 177.175 177.560 177.374 178.426 178.441 C 179.292 179.509 180.000 180.092 180.000 179.737 C 180.000 179.381 181.024 180.083 182.274 181.295 C 183.525 182.508 186.081 184.625 187.953 186.000 C 189.825 187.375 192.570 189.505 194.053 190.733 C 196.667 192.898 197.659 192.987 226.375 193.605 L 256.000 194.242 256.000 127.661 L 256.000 61.080 236.074 60.790 C 224.072 60.615 215.439 60.898 214.366 61.500 "/></g>
<g fill="#01A0FEFF" stroke="#01A0FEFF">
<path d="M 55.968 67.336 C 55.676 67.644 53.426 68.107 50.968 68.364 C 48.511 68.621 43.688 69.960 40.250 71.341 C 36.813 72.722 34.000 73.664 34.000 73.435 C 34.000 73.206 31.638 74.460 28.750 76.221 C 23.094 79.671 9.000 92.966 9.000 94.851 C 9.000 95.483 8.622 96.000 8.159 96.000 C 6.963 96.000 1.903 105.570 2.685 106.352 C 3.042 106.708 2.782 107.000 2.108 107.000 C 1.434 107.000 1.141 107.419 1.457 107.931 C 1.774 108.443 1.596 109.132 1.063 109.461 C 0.482 109.820 0.114 118.759 0.146 131.754 C 0.188 148.662 0.509 153.888 1.600 155.446 C 2.370 156.546 3.000 158.160 3.000 159.034 C 3.000 159.908 3.873 161.560 4.940 162.705 C 6.007 163.850 6.643 165.024 6.353 165.314 C 6.063 165.603 6.991 166.603 8.413 167.535 C 9.836 168.467 11.000 169.650 11.000 170.163 C 11.000 171.065 12.624 172.733 18.640 178.007 C 22.719 181.583 31.941 187.333 33.597 187.333 C 34.369 187.333 35.000 187.633 35.000 188.000 C 35.000 188.367 35.563 188.695 36.250 188.729 C 36.938 188.764 40.876 189.894 45.002 191.242 C 51.235 193.277 54.195 193.654 62.502 193.468 C 75.045 193.187 75.222 193.169 74.622 192.197 C 74.349 191.755 75.447 191.486 77.063 191.597 C 78.678 191.709 80.000 191.369 80.000 190.841 C 80.000 190.314 80.450 190.160 81.000 190.500 C 81.550 190.840 82.000 190.641 82.000 190.059 C 82.000 189.477 82.338 189.060 82.750 189.134 C 84.968 189.529 90.000 187.557 90.000 186.292 C 90.000 185.490 90.562 185.021 91.250 185.250 C 91.937 185.479 93.762 184.899 95.304 183.961 C 97.554 182.593 97.794 182.135 96.516 181.645 C 95.584 181.287 94.690 181.645 94.357 182.511 C 94.046 183.324 93.318 183.697 92.741 183.340 C 92.084 182.934 91.993 183.180 92.500 184.000 C 93.017 184.837 92.917 185.067 92.223 184.638 C 91.454 184.162 91.501 183.263 92.384 181.560 C 93.289 179.816 94.027 179.404 95.066 180.062 C 95.855 180.561 96.950 180.969 97.500 180.969 C 98.050 180.969 97.892 180.584 97.149 180.113 C 96.104 179.451 95.831 175.963 95.944 164.715 C 96.036 155.525 95.706 149.936 95.045 149.528 C 94.470 149.173 94.000 148.432 94.000 147.882 C 94.000 147.332 94.445 147.157 94.989 147.493 C 95.555 147.843 95.723 147.442 95.382 146.552 C 94.515 144.294 92.544 144.649 90.448 147.440 C 89.440 148.782 87.607 150.133 86.374 150.442 C 85.142 150.752 83.855 151.881 83.515 152.951 C 83.174 154.026 82.306 154.671 81.578 154.391 C 80.852 154.113 79.633 154.510 78.870 155.273 C 78.107 156.036 76.954 156.485 76.309 156.270 C 75.664 156.055 73.868 156.510 72.318 157.282 C 70.646 158.115 66.108 158.728 61.160 158.790 C 53.197 158.890 52.554 158.728 46.910 155.200 C 43.660 153.168 41.000 151.012 41.000 150.408 C 41.000 149.804 40.100 148.495 39.000 147.500 C 37.900 146.505 37.000 145.058 37.000 144.286 C 37.000 143.514 36.619 143.117 36.154 143.405 C 35.688 143.693 34.728 140.858 34.020 137.106 C 33.009 131.751 32.987 129.231 33.915 125.392 C 35.461 118.999 40.918 111.625 46.798 107.983 C 49.384 106.381 51.950 104.717 52.500 104.285 C 53.050 103.853 54.400 103.389 55.500 103.253 C 56.600 103.117 59.842 102.637 62.705 102.188 C 65.650 101.725 68.606 101.760 69.514 102.268 C 70.396 102.762 72.695 103.361 74.623 103.600 C 76.551 103.839 79.417 104.988 80.992 106.152 C 82.567 107.317 84.526 108.012 85.345 107.698 C 86.164 107.383 87.083 107.773 87.386 108.563 C 87.689 109.353 88.653 110.000 89.528 110.000 C 90.402 110.000 90.859 110.419 90.543 110.931 C 90.226 111.443 90.425 112.144 90.984 112.490 C 91.543 112.835 92.032 112.529 92.070 111.809 C 92.109 111.089 92.464 111.321 92.859 112.324 C 93.255 113.327 93.960 114.076 94.427 113.989 C 94.894 113.901 95.614 114.375 96.026 115.043 C 96.439 115.710 97.164 116.017 97.638 115.724 C 98.112 115.431 98.275 115.154 98.000 115.108 C 97.725 115.063 97.452 114.181 97.393 113.149 C 97.334 112.117 97.023 110.847 96.702 110.328 C 96.381 109.808 96.031 102.333 95.924 93.716 C 95.817 85.099 95.341 78.289 94.865 78.583 C 94.389 78.877 94.000 78.416 94.000 77.559 C 94.000 76.702 94.788 75.965 95.750 75.921 C 96.713 75.878 95.278 74.778 92.562 73.478 C 89.846 72.178 87.259 71.340 86.812 71.616 C 86.365 71.892 86.000 71.615 86.000 71.000 C 86.000 70.385 85.588 70.137 85.084 70.448 C 84.580 70.760 82.893 70.492 81.334 69.853 C 79.775 69.215 77.825 68.544 77.000 68.361 C 73.780 67.650 56.470 66.806 55.968 67.336 "/></g>
<g fill="#018BFEFF" stroke="#018BFEFF">
<path d="M 102.197 83.000 C 102.071 84.650 102.425 86.000 102.984 86.000 C 103.624 86.000 104.000 91.206 104.000 100.059 C 104.000 110.538 103.702 113.934 102.830 113.395 C 102.007 112.886 101.889 113.240 102.432 114.586 C 102.857 115.639 103.652 117.737 104.200 119.249 C 104.763 120.804 105.661 121.710 106.267 121.335 C 106.934 120.923 107.109 121.274 106.729 122.263 C 106.092 123.924 108.214 126.453 109.318 125.348 C 109.667 124.999 110.236 125.451 110.581 126.351 C 110.927 127.252 111.565 127.769 112.000 127.500 C 112.435 127.231 113.087 127.784 113.449 128.728 C 114.013 130.199 114.241 130.234 115.038 128.972 C 115.770 127.815 115.973 127.994 115.985 129.809 C 115.993 131.102 116.443 131.844 117.007 131.496 C 117.561 131.153 118.284 131.577 118.614 132.437 C 118.944 133.296 119.818 134.000 120.557 134.000 C 121.296 134.000 122.359 134.788 122.920 135.750 C 123.481 136.713 123.953 137.173 123.970 136.772 C 123.986 136.372 126.356 138.292 129.236 141.039 C 132.116 143.786 135.041 145.815 135.736 145.548 C 136.431 145.281 137.000 145.750 137.000 146.590 C 137.000 147.431 137.401 147.870 137.891 147.568 C 138.380 147.265 139.555 148.198 140.500 149.640 C 141.744 151.540 142.435 151.915 143.000 151.000 C 143.561 150.093 143.974 150.342 144.463 151.882 C 144.837 153.063 145.562 153.771 146.072 153.456 C 146.582 153.140 147.000 153.359 147.000 153.941 C 147.000 154.523 147.405 154.888 147.900 154.750 C 148.395 154.613 148.733 154.829 148.650 155.231 C 148.568 155.633 149.467 156.639 150.649 157.466 C 152.590 158.827 152.871 158.804 153.562 157.236 C 154.187 155.818 154.343 155.950 154.414 157.956 L 154.500 160.412 156.250 157.741 C 157.709 155.514 158.000 152.709 158.000 140.850 C 158.000 127.502 157.862 126.477 155.750 124.154 C 153.957 122.182 153.855 121.807 155.250 122.308 C 157.355 123.065 157.438 122.163 155.500 119.603 C 154.710 118.559 154.298 117.327 154.584 116.864 C 154.870 116.401 154.332 116.319 153.388 116.681 C 152.222 117.129 151.904 116.964 152.396 116.168 C 152.844 115.444 152.132 114.620 150.535 114.013 C 149.112 113.472 147.688 112.351 147.370 111.521 C 147.051 110.691 146.435 110.231 146.000 110.500 C 145.565 110.769 144.952 110.316 144.636 109.494 C 144.321 108.672 143.399 108.000 142.588 108.000 C 141.777 108.000 140.413 107.000 139.557 105.777 C 138.701 104.555 138.000 103.903 138.000 104.329 C 138.000 104.755 136.875 103.889 135.500 102.405 C 134.125 100.922 132.986 100.111 132.968 100.604 C 132.951 101.097 132.276 100.626 131.468 99.559 C 130.661 98.491 130.000 98.015 130.000 98.500 C 130.000 98.985 129.339 98.509 128.532 97.441 C 127.724 96.374 126.993 95.838 126.907 96.250 C 126.821 96.663 126.683 96.438 126.601 95.750 C 126.519 95.063 125.675 94.563 124.726 94.639 C 123.777 94.715 123.000 94.126 123.000 93.330 C 123.000 92.534 122.550 92.160 122.000 92.500 C 121.450 92.840 121.000 92.641 121.000 92.059 C 121.000 91.477 120.373 91.000 119.607 91.000 C 118.841 91.000 117.930 90.261 117.583 89.357 C 117.237 88.453 116.666 88.000 116.316 88.351 C 115.966 88.701 114.967 87.978 114.097 86.744 C 113.227 85.510 112.511 85.092 112.507 85.816 C 112.503 86.539 111.164 85.736 109.530 84.031 L 106.560 80.932 104.713 83.216 C 103.026 85.301 102.955 85.316 103.898 83.381 C 104.858 81.409 104.504 80.000 103.046 80.000 C 102.705 80.000 102.323 81.350 102.197 83.000 "/></g>
<g fill="#018BFEFF" stroke="#018BFEFF">
<path d="M 106.202 134.536 C 106.589 134.922 106.251 135.892 105.452 136.690 C 104.544 137.599 104.000 137.715 104.000 137.000 C 104.000 136.325 103.357 136.500 102.429 137.429 C 101.000 138.857 101.000 139.000 102.429 139.000 C 104.544 139.000 104.427 140.622 102.250 141.460 C 100.583 142.102 100.583 142.181 102.250 143.117 C 103.810 143.992 103.991 145.862 103.921 160.300 C 103.878 169.210 103.616 175.942 103.341 175.259 C 102.956 174.306 102.509 174.348 101.420 175.438 C 99.790 177.068 99.515 178.418 101.000 177.500 C 101.550 177.160 102.000 177.610 102.000 178.500 C 102.000 179.468 101.536 179.832 100.845 179.405 C 100.146 178.972 99.962 179.129 100.378 179.802 C 101.299 181.292 104.246 180.084 103.627 178.469 C 103.028 176.909 107.168 175.654 108.075 177.121 C 108.468 177.757 108.970 177.521 109.354 176.520 C 109.701 175.614 110.439 175.153 110.993 175.496 C 111.547 175.838 112.000 175.368 112.000 174.452 C 112.000 173.382 112.537 172.992 113.500 173.362 C 114.325 173.678 115.000 173.554 115.000 173.085 C 115.000 172.617 115.945 171.986 117.101 171.684 C 118.437 171.334 118.927 170.690 118.446 169.913 C 117.976 169.152 118.107 168.948 118.795 169.373 C 119.403 169.749 120.388 169.143 120.985 168.028 C 121.582 166.913 122.899 166.000 123.913 166.000 C 125.624 166.000 129.005 163.153 127.622 162.875 C 127.280 162.806 127.367 162.694 127.816 162.625 C 128.265 162.556 129.840 161.196 131.317 159.603 C 133.543 157.201 133.788 156.443 132.751 155.161 C 131.709 153.875 131.751 153.764 133.000 154.500 C 134.306 155.270 134.318 155.159 133.090 153.646 C 132.314 152.691 131.077 152.140 130.340 152.423 C 129.580 152.715 129.000 152.275 129.000 151.410 C 129.000 150.569 128.600 150.129 128.111 150.431 C 127.622 150.733 126.025 149.410 124.560 147.490 C 123.096 145.571 121.246 144.000 120.449 144.000 C 119.652 144.000 119.000 143.475 119.000 142.833 C 119.000 142.192 118.707 141.960 118.349 142.318 C 117.991 142.676 117.127 142.188 116.429 141.234 C 115.732 140.281 114.675 139.444 114.081 139.375 C 113.486 139.306 113.280 139.194 113.622 139.125 C 113.965 139.056 113.627 138.256 112.872 137.346 C 111.812 136.068 111.498 136.011 111.493 137.096 C 111.488 138.038 110.994 137.842 109.993 136.500 C 109.172 135.400 107.825 134.350 107.000 134.167 C 106.175 133.983 105.816 134.149 106.202 134.536 "/></g>
<g fill="#019FFEFF" stroke="#019FFEFF">
<path d="M 96.104 145.707 C 96.473 147.909 95.890 149.052 94.750 148.367 C 93.805 147.800 93.816 148.006 94.792 149.212 C 96.591 151.432 96.393 180.365 94.584 179.671 C 93.911 179.413 92.968 180.169 92.487 181.351 C 91.454 183.886 92.912 184.909 94.222 182.569 C 94.717 181.683 95.615 181.262 96.216 181.633 C 96.871 182.038 97.023 181.847 96.595 181.155 C 96.203 180.520 96.359 180.000 96.941 180.000 C 97.523 180.000 98.071 180.338 98.158 180.750 C 98.244 181.163 98.294 180.938 98.269 180.250 C 98.243 179.563 98.582 179.000 99.021 179.000 C 99.461 179.000 99.878 171.825 99.949 163.056 C 100.071 147.930 99.973 147.056 98.025 146.013 C 96.895 145.409 96.031 145.271 96.104 145.707 "/></g>
<g fill="#0268FFFF" stroke="#0268FFFF">
<path d="M 155.826 124.314 C 157.854 126.473 158.000 127.614 158.000 141.255 C 158.000 149.928 157.593 156.134 157.000 156.500 C 156.450 156.840 156.000 157.597 156.000 158.181 C 156.000 158.932 156.378 158.931 157.284 158.180 C 158.173 157.441 159.017 157.433 160.034 158.152 C 161.207 158.981 161.122 159.065 159.609 158.571 C 158.007 158.049 157.911 158.188 158.981 159.477 C 159.676 160.315 159.852 161.014 159.372 161.030 C 158.893 161.047 159.251 161.499 160.170 162.035 C 161.700 162.928 161.849 161.604 161.950 146.152 C 162.039 132.441 161.785 129.067 160.589 128.074 C 159.781 127.403 159.367 126.207 159.671 125.416 C 160.042 124.447 159.738 124.163 158.740 124.546 C 157.909 124.865 156.996 124.431 156.660 123.557 C 156.332 122.701 155.520 122.000 154.857 122.000 C 154.194 122.000 154.630 123.042 155.826 124.314 "/></g>
<g fill="#019EFEFF" stroke="#019EFEFF">
<path d="M 101.000 143.577 C 102.931 144.741 103.038 144.961 101.471 144.544 C 99.962 144.144 99.192 144.650 98.471 146.517 C 97.697 148.519 97.753 148.782 98.750 147.814 C 99.748 146.844 100.000 149.559 100.000 161.300 C 100.000 170.433 100.379 176.000 101.000 176.000 C 101.550 176.000 102.007 175.438 102.015 174.750 C 102.026 173.917 102.354 174.000 103.000 175.000 C 103.648 176.003 103.974 171.124 103.985 160.285 C 103.999 145.269 103.857 143.994 102.066 143.035 C 99.072 141.433 98.188 141.883 101.000 143.577 "/></g>
<g fill="#019EFEFF" stroke="#019EFEFF">
<path d="M 97.780 82.256 C 99.952 84.578 100.047 85.328 99.780 98.096 C 99.575 107.920 99.166 111.533 98.250 111.625 C 96.607 111.789 95.806 112.209 96.750 112.410 C 99.505 113.000 101.863 115.224 101.368 116.765 C 100.926 118.143 101.017 118.210 101.813 117.091 C 102.364 116.316 102.555 115.004 102.238 114.177 C 101.862 113.197 102.068 112.924 102.830 113.395 C 103.702 113.934 104.000 110.538 104.000 100.059 C 104.000 91.353 103.619 86.000 103.000 86.000 C 102.450 86.000 101.997 85.438 101.994 84.750 C 101.990 84.063 100.528 82.672 98.744 81.659 L 95.500 79.819 97.780 82.256 "/></g>
<g fill="#019FFEFF" stroke="#019FFEFF">
<path d="M 94.704 76.757 C 94.266 77.418 94.378 78.838 94.954 79.914 C 95.539 81.006 96.000 88.018 96.000 95.812 C 96.000 106.256 96.337 110.035 97.342 110.869 C 98.080 111.481 98.980 111.687 99.342 111.325 C 99.704 110.963 100.000 104.736 100.000 97.488 C 100.000 85.439 99.823 84.150 97.934 82.440 C 95.950 80.645 95.940 80.515 97.684 79.182 C 99.387 77.879 99.367 77.833 97.355 78.430 C 95.710 78.920 95.245 78.659 95.355 77.312 C 95.453 76.124 95.243 75.944 94.704 76.757 "/></g>
<g fill="#018BFEFF" stroke="#018BFEFF">
<path d="M 158.250 120.250 C 159.799 121.799 160.059 122.500 159.083 122.500 C 158.304 122.500 157.479 123.063 157.250 123.750 C 156.744 125.268 157.515 125.330 160.043 123.977 C 161.636 123.125 161.846 123.237 161.304 124.650 C 160.799 125.965 161.048 126.196 162.408 125.674 C 163.374 125.303 164.401 125.000 164.692 125.000 C 165.511 125.000 157.599 118.049 156.750 118.023 C 156.338 118.010 157.013 119.013 158.250 120.250 "/></g>
<g fill="#018BFEFF" stroke="#018BFEFF">
<path d="M 95.880 142.419 C 93.456 144.511 93.392 144.764 95.026 145.784 C 97.230 147.160 100.099 144.396 99.131 141.829 C 98.568 140.338 98.218 140.401 95.880 142.419 "/></g>
</svg>
