<svg xmlns="http://www.w3.org/2000/svg" xmlns:xlink="http://www.w3.org/1999/xlink" fill="none" version="1.1" width="257.175537109375" height="132" viewBox="0 0 257.175537109375 132"><g><path d="M108.763,24.8259C99.0815,14.8774,87.3169,8.73203,73.4694,6.51895Q52.5773,3.18,33.8273,12.9313Q15.0773,22.6825,6.0655,41.5735Q-2.94627,60.4645,1.43109,80.842Q5.80845,101.22,21.8016,114.828Q37.7947,128.437,58.9243,129.763Q79.3096,131.043,96.5083,120.39C96.8221,120.207,97.3044,119.92,98,119.5C104.51,115.572,129.702,100.052,132.072,93.5L108.932,74.5L88.5717,89L88.4602,88.907Q87.8952,89.3893,87.3065,89.8467Q86.7178,90.3041,86.1067,90.7356Q85.4956,91.1672,84.8634,91.5719Q84.2312,91.9767,83.5792,92.3538Q82.9273,92.7309,82.2571,93.0796Q81.5869,93.4282,80.8998,93.7476Q80.2128,94.067,79.5103,94.3564Q78.8079,94.6459,78.0917,94.9048Q77.3754,95.1637,76.6469,95.3915Q75.9184,95.6193,75.1792,95.8155Q74.44,96.0116,73.6917,96.1758Q72.9434,96.3399,72.1877,96.4716Q71.4319,96.6034,70.6703,96.7024Q69.9088,96.8015,69.143,96.8676Q68.3773,96.9338,67.609,96.9669Q66.8408,97,66.0717,97Q65.2616,97,64.4525,96.9633Q63.6434,96.9265,62.8372,96.8531Q62.0309,96.7797,61.2296,96.6699Q60.4283,96.56,59.6337,96.4139Q58.8392,96.2679,58.0534,96.0859Q57.2675,95.904,56.4923,95.6867Q55.7171,95.4693,54.9543,95.2171Q54.1916,94.9648,53.4432,94.6783Q52.6947,94.3918,51.9624,94.0717Q51.2301,93.7515,50.5156,93.3986Q49.8012,93.0456,49.1063,92.6607Q48.4115,92.2758,47.7379,91.8598Q47.0643,91.4438,46.4136,90.9978Q45.763,90.5518,45.1367,90.0768Q44.5105,89.6018,43.9103,89.099Q43.31,88.5962,42.7372,88.0667Q42.1644,87.5373,41.6203,86.9825Q41.0763,86.4278,40.5624,85.849Q40.0485,85.2702,39.5659,84.6688Q39.0833,84.0674,38.6332,83.4449Q38.1831,82.8223,37.7667,82.1801Q37.3502,81.5379,36.9683,80.8776Q36.5864,80.2173,36.2401,79.5404Q35.8937,78.8636,35.5837,78.1718Q35.2737,77.4801,35.0008,76.7751Q34.7278,76.0702,34.4927,75.3537Q34.2575,74.6372,34.0607,73.9109Q33.8638,73.1846,33.7058,72.4502Q33.5478,71.7159,33.4289,70.9753Q33.31,70.2346,33.2306,69.4895Q33.1512,68.7444,33.1115,67.9966Q33.0717,67.2487,33.0717,66.5Q33.0717,65.7513,33.1115,65.0034Q33.1512,64.2556,33.2306,63.5105Q33.31,62.7653,33.4289,62.0247Q33.5478,61.2841,33.7058,60.5497Q33.8638,59.8154,34.0607,59.0891Q34.2575,58.3628,34.4927,57.6463Q34.7278,56.9298,35.0008,56.2249Q35.2737,55.5199,35.5837,54.8282Q35.8937,54.1364,36.2401,53.4596Q36.5864,52.7827,36.9683,52.1224Q37.3502,51.4621,37.7667,50.8199Q38.1831,50.1777,38.6332,49.5551Q39.0833,48.9326,39.5659,48.3312Q40.0485,47.7298,40.5624,47.151Q41.0763,46.5722,41.6203,46.0174Q42.1644,45.4627,42.7372,44.9332Q43.31,44.4038,43.9103,43.901Q44.5105,43.3982,45.1367,42.9232Q45.763,42.4482,46.4136,42.0022Q47.0643,41.5561,47.7379,41.1402Q48.4115,40.7242,49.1063,40.3393Q49.8012,39.9543,50.5156,39.6014Q51.2301,39.2484,51.9624,38.9283Q52.6947,38.6082,53.4432,38.3217Q54.1916,38.0351,54.9543,37.7829Q55.7171,37.5307,56.4923,37.3133Q57.2675,37.096,58.0534,36.914Q58.8392,36.7321,59.6337,36.586Q60.4283,36.44,61.2296,36.3301Q62.0309,36.2203,62.8372,36.1469Q63.6434,36.0735,64.4525,36.0367Q65.2616,36,66.0717,36Q66.8419,36,67.6113,36.0332Q68.3807,36.0664,69.1475,36.1328Q69.9144,36.1991,70.6771,36.2985Q71.4397,36.3978,72.1966,36.5299Q72.9534,36.6621,73.7027,36.8267Q74.4521,36.9913,75.1923,37.188Q75.9325,37.3848,76.662,37.6132Q77.3914,37.8417,78.1086,38.1013Q78.8257,38.361,79.529,38.6513Q80.2323,38.9416,80.9201,39.2619Q81.6079,39.5822,82.2789,39.9318Q82.9498,40.2814,83.6023,40.6596Q84.2549,41.0377,84.8876,41.4436Q85.5204,41.8495,86.1319,42.2823Q86.7435,42.715,87.3326,43.1736Q87.9216,43.6322,88.4869,44.1158L88.6193,43.992L201.176,132L257.176,130L257.176,0L218.176,0L163.446,38.9599L159.176,42L163.358,45.1601L181.676,59L219.676,32.9302L224.676,29.5L224.676,99.5L205.676,99.5L108.763,24.8259ZM181.817,52.8398L229.676,20.0062L229.676,104.5L203.973,104.5L105.429,28.5688L105.18,28.3131Q91.7397,14.5023,72.6803,11.4563Q53.4191,8.37798,36.1343,17.3672Q18.8694,26.3461,10.5783,43.7263Q2.29997,61.0799,6.31958,79.7919Q10.3407,98.5109,25.0418,111.02Q39.7681,123.551,59.2376,124.773Q78.032,125.953,93.8755,116.14L95.4374,115.207Q105.633,109.054,113.719,103.389Q119.772,99.1486,123.378,96.0051Q124.407,95.1085,125.203,94.33L108.716,80.7922L88.3311,95.3097L88.3115,95.2934Q84.3819,97.9476,79.7914,99.607Q73.1714,102,66.0717,102Q58.8912,102,52.2065,99.5541Q44.9116,96.8849,39.3435,91.7386Q33.728,86.5486,30.7926,79.6956Q28.0717,73.3435,28.0717,66.5Q28.0717,59.6565,30.7926,53.3044Q33.728,46.4514,39.3435,41.2614Q44.9115,36.1151,52.2065,33.4459Q58.8912,31,66.0717,31Q73.1822,31,79.8108,33.4Q84.292,35.0225,88.1423,37.5929L88.3292,37.4181L202.819,126.938L252.176,125.175L252.176,5L219.773,5L167.629,42.1201L181.817,52.8398Z" fill-rule="evenodd" fill="#FFFFFF" fill-opacity="1"/></g></svg>